<svg id="Layer_1" data-name="Layer 1" xmlns="http://www.w3.org/2000/svg" viewBox="0 0 200 200"><defs><style>.cls-1{fill:#fff;}</style></defs><path class="cls-1" d="M157.5,160H42.5a2.5,2.5,0,0,1-2.5-2.5V42.5A2.5,2.5,0,0,1,42.5,40h115a2.5,2.5,0,0,1,2.5,2.5v115A2.5,2.5,0,0,1,157.5,160ZM45,155H155V45H45Z"/><rect class="cls-1" x="67.5" y="100" width="65" height="5" transform="translate(-33.09 155.36) rotate(-67.37)"/><path class="cls-1" d="M78.23,124.27l-20-20a2.52,2.52,0,0,1,0-3.54l20-20,3.54,3.54L63.54,102.5l18.23,18.23Z"/><path class="cls-1" d="M121.77,124.27l-3.54-3.54,18.24-18.23L118.23,84.27l3.54-3.54,20,20a2.52,2.52,0,0,1,0,3.54Z"/><rect class="cls-1" x="50" y="50" width="5" height="5"/><rect class="cls-1" x="60" y="50" width="5" height="5"/><rect class="cls-1" x="70" y="50" width="5" height="5"/><rect class="cls-1" x="42.5" y="60" width="115" height="5"/><rect class="cls-1" x="47.5" y="140" width="105" height="5"/></svg>