<?xml version="1.0" encoding="utf-8"?>
<!-- Generator: Adobe Illustrator 28.1.0, SVG Export Plug-In . SVG Version: 6.00 Build 0)  -->
<svg version="1.1" id="Layer_1" xmlns="http://www.w3.org/2000/svg" xmlns:xlink="http://www.w3.org/1999/xlink" x="0px" y="0px"
	 viewBox="0 0 200 200" style="enable-background:new 0 0 200 200;" xml:space="preserve">
<style type="text/css">
	.st0{fill:#FF602E;}
</style>
<path class="st0" d="M157.5,160h-115c-1.4,0-2.5-1.1-2.5-2.5v-115c0-1.4,1.1-2.5,2.5-2.5h115c1.4,0,2.5,1.1,2.5,2.5v115
	C160,158.9,158.9,160,157.5,160z M45,155h110V45H45V155z"/>
<rect x="67.5" y="100" transform="matrix(0.3848 -0.923 0.923 0.3848 -33.0876 155.357)" class="st0" width="65" height="5"/>
<path class="st0" d="M78.2,124.3l-20-20c-1-1-1-2.6,0-3.5l20-20l3.5,3.5l-18.2,18.2l18.2,18.2L78.2,124.3z"/>
<path class="st0" d="M121.8,124.3l-3.5-3.5l18.2-18.2l-18.2-18.2l3.5-3.5l20,20c1,1,1,2.6,0,3.5L121.8,124.3z"/>
<rect x="50" y="50" class="st0" width="5" height="5"/>
<rect x="60" y="50" class="st0" width="5" height="5"/>
<rect x="70" y="50" class="st0" width="5" height="5"/>
<rect x="42.5" y="60" class="st0" width="115" height="5"/>
<rect x="47.5" y="140" class="st0" width="105" height="5"/>
</svg>
