<svg id="Layer_1" data-name="Layer 1" xmlns="http://www.w3.org/2000/svg" viewBox="0 0 200 200"><defs><style>.cls-1{fill:#fff;}</style></defs><path class="cls-1" d="M157.5,160H42.5a2.5,2.5,0,0,1-2.5-2.5V42.5A2.5,2.5,0,0,1,42.5,40h115a2.5,2.5,0,0,1,2.5,2.5v115A2.5,2.5,0,0,1,157.5,160ZM45,155H155V45H45Z"/><rect class="cls-1" x="50" y="50" width="5" height="5"/><rect class="cls-1" x="60" y="50" width="5" height="5"/><rect class="cls-1" x="70" y="50" width="5" height="5"/><rect class="cls-1" x="42.5" y="60" width="115" height="5"/><path class="cls-1" d="M107.5,145H55a2.5,2.5,0,0,1-2.5-2.5V75A2.5,2.5,0,0,1,55,72.5h52.5A2.5,2.5,0,0,1,110,75v67.5A2.5,2.5,0,0,1,107.5,145Zm-50-5H105V77.5H57.5Z"/><path class="cls-1" d="M88.23,119.27,67.5,98.54,56.77,109.27l-3.54-3.54,12.5-12.5a2.52,2.52,0,0,1,3.54,0l22.5,22.5Z"/><path class="cls-1" d="M66.77,144.27l-3.54-3.54,32.5-32.5a2.52,2.52,0,0,1,3.54,0l10,10-3.54,3.54-8.23-8.23Z"/><path class="cls-1" d="M90,102.5a10,10,0,1,1,10-10A10,10,0,0,1,90,102.5Zm0-15a5,5,0,1,0,5,5A5,5,0,0,0,90,87.5Z"/><rect class="cls-1" x="135" y="75" width="12.5" height="5"/><rect class="cls-1" x="117.5" y="75" width="12.5" height="5"/><rect class="cls-1" x="117.5" y="87.5" width="30" height="5"/><rect class="cls-1" x="117.5" y="100" width="22.5" height="5"/><rect class="cls-1" x="117.5" y="112.5" width="30" height="5"/><rect class="cls-1" x="135" y="125" width="12.5" height="5"/><rect class="cls-1" x="117.5" y="125" width="12.5" height="5"/><rect class="cls-1" x="117.5" y="137.5" width="22.5" height="5"/></svg>