<?xml version="1.0" encoding="utf-8"?>
<!-- Generator: Adobe Illustrator 25.2.3, SVG Export Plug-In . SVG Version: 6.00 Build 0)  -->
<svg version="1.1" id="Layer_1" xmlns="http://www.w3.org/2000/svg" xmlns:xlink="http://www.w3.org/1999/xlink" x="0px" y="0px"
	 viewBox="0 0 54 54" style="enable-background:new 0 0 54 54;" xml:space="preserve">
<style type="text/css">
	.st0{fill:#FFFFFF;}
</style>
<g id="Layer_2_1_">
	<g id="Layer_1-2">
		<path id="Path_2520" class="st0" d="M46,46h-8V33.5c0-3,0-6.8-4.2-6.8S29,29.9,29,33.3V46h-8V20.2h7.7v3.5h0.1
			c1.6-2.7,4.5-4.3,7.6-4.2c8.1,0,9.6,5.3,9.6,12.3L46,46z M12,16.7c-2.6,0-4.6-2.1-4.6-4.7c0-2.6,2.1-4.6,4.7-4.6s4.6,2.1,4.6,4.7
			c0,0,0,0,0,0C16.7,14.6,14.6,16.7,12,16.7C12,16.7,12,16.7,12,16.7L12,16.7 M16,46H8V20.2h8V46z M50,0H4C1.8,0,0.1,1.7,0,3.9v46.2
			C0.1,52.3,1.8,54,4,54h46c2.2,0,3.9-1.7,4-3.9V3.9C54,1.7,52.2,0,50,0C50,0,50,0,50,0"/>
	</g>
</g>
</svg>
