<?xml version="1.0" encoding="utf-8"?>
<!-- Generator: Adobe Illustrator 28.1.0, SVG Export Plug-In . SVG Version: 6.00 Build 0)  -->
<svg version="1.1" id="Layer_1" xmlns="http://www.w3.org/2000/svg" xmlns:xlink="http://www.w3.org/1999/xlink" x="0px" y="0px"
	 viewBox="0 0 200 200" style="enable-background:new 0 0 200 200;" xml:space="preserve">
<style type="text/css">
	.st0{fill:#FF602E;}
</style>
<path class="st0" d="M157.5,160h-115c-1.4,0-2.5-1.1-2.5-2.5v-115c0-1.4,1.1-2.5,2.5-2.5h90c0.7,0,1.3,0.3,1.8,0.7l25,25
	c0.5,0.5,0.7,1.1,0.7,1.8v90C160,158.9,158.9,160,157.5,160z M45,155h110V68.5L131.5,45H45V155z"/>
<path class="st0" d="M157.5,70h-25c-1.4,0-2.5-1.1-2.5-2.5v-25c0-1.4,1.1-2.5,2.5-2.5c0.7,0,1.3,0.3,1.8,0.7l25,25c1,1,1,2.6,0,3.5
	C158.8,69.7,158.2,70,157.5,70z M135,65h16.5L135,48.5V65z"/>
<path class="st0" d="M117.5,77.5h-35c-1.4,0-2.5-1.1-2.5-2.5V60c0-1.4,1.1-2.5,2.5-2.5h35c1.4,0,2.5,1.1,2.5,2.5v15
	C120,76.4,118.9,77.5,117.5,77.5z M85,72.5h30v-10H85V72.5z"/>
<path class="st0" d="M110,112.5H90c-1.4,0-2.5-1.1-2.5-2.5V95c0-1.4,1.1-2.5,2.5-2.5h20c1.4,0,2.5,1.1,2.5,2.5v15
	C112.5,111.4,111.4,112.5,110,112.5z M92.5,107.5h15v-10h-15V107.5z"/>
<path class="st0" d="M145,112.5h-20c-1.4,0-2.5-1.1-2.5-2.5V95c0-1.4,1.1-2.5,2.5-2.5h20c1.4,0,2.5,1.1,2.5,2.5v15
	C147.5,111.4,146.4,112.5,145,112.5z M127.5,107.5h15v-10h-15V107.5z"/>
<path class="st0" d="M75,112.5H55c-1.4,0-2.5-1.1-2.5-2.5V95c0-1.4,1.1-2.5,2.5-2.5h20c1.4,0,2.5,1.1,2.5,2.5v15
	C77.5,111.4,76.4,112.5,75,112.5z M57.5,107.5h15v-10h-15V107.5z"/>
<path class="st0" d="M110,142.5H90c-1.4,0-2.5-1.1-2.5-2.5v-15c0-1.4,1.1-2.5,2.5-2.5h20c1.4,0,2.5,1.1,2.5,2.5v15
	C112.5,141.4,111.4,142.5,110,142.5z M92.5,137.5h15v-10h-15V137.5z"/>
<path class="st0" d="M145,142.5h-20c-1.4,0-2.5-1.1-2.5-2.5v-15c0-1.4,1.1-2.5,2.5-2.5h20c1.4,0,2.5,1.1,2.5,2.5v15
	C147.5,141.4,146.4,142.5,145,142.5z M127.5,137.5h15v-10h-15V137.5z"/>
<path class="st0" d="M75,142.5H55c-1.4,0-2.5-1.1-2.5-2.5v-15c0-1.4,1.1-2.5,2.5-2.5h20c1.4,0,2.5,1.1,2.5,2.5v15
	C77.5,141.4,76.4,142.5,75,142.5z M57.5,137.5h15v-10h-15V137.5z"/>
<rect x="97.5" y="75" class="st0" width="5" height="20"/>
<rect x="110" y="100" class="st0" width="15" height="5"/>
<path class="st0" d="M137.5,95h-5v-7.5h-65V95h-5V85c0-1.4,1.1-2.5,2.5-2.5h70c1.4,0,2.5,1.1,2.5,2.5V95z"/>
<rect x="97.5" y="110" class="st0" width="5" height="15"/>
<rect x="132.5" y="110" class="st0" width="5" height="15"/>
<rect x="75" y="130" class="st0" width="15" height="5"/>
</svg>
