<svg id="Layer_1" data-name="Layer 1" xmlns="http://www.w3.org/2000/svg" viewBox="0 0 200 200"><defs><style>.cls-1{fill:#fff;}</style></defs><path class="cls-1" d="M157.5,160H42.5a2.5,2.5,0,0,1-2.5-2.5V42.5A2.5,2.5,0,0,1,42.5,40h90a2.51,2.51,0,0,1,1.77.73l25,25A2.55,2.55,0,0,1,160,67.5v90A2.5,2.5,0,0,1,157.5,160ZM45,155H155V68.54L131.46,45H45Z"/><path class="cls-1" d="M157.5,70h-25a2.5,2.5,0,0,1-2.5-2.5v-25a2.5,2.5,0,0,1,4.27-1.77l25,25A2.5,2.5,0,0,1,157.5,70ZM135,65h16.46L135,48.54Z"/><path class="cls-1" d="M117.5,77.5h-35A2.5,2.5,0,0,1,80,75V60a2.5,2.5,0,0,1,2.5-2.5h35A2.5,2.5,0,0,1,120,60V75A2.5,2.5,0,0,1,117.5,77.5ZM85,72.5h30v-10H85Z"/><path class="cls-1" d="M110,112.5H90a2.5,2.5,0,0,1-2.5-2.5V95A2.5,2.5,0,0,1,90,92.5h20a2.5,2.5,0,0,1,2.5,2.5v15A2.5,2.5,0,0,1,110,112.5Zm-17.5-5h15v-10h-15Z"/><path class="cls-1" d="M145,112.5H125a2.5,2.5,0,0,1-2.5-2.5V95a2.5,2.5,0,0,1,2.5-2.5h20a2.5,2.5,0,0,1,2.5,2.5v15A2.5,2.5,0,0,1,145,112.5Zm-17.5-5h15v-10h-15Z"/><path class="cls-1" d="M75,112.5H55a2.5,2.5,0,0,1-2.5-2.5V95A2.5,2.5,0,0,1,55,92.5H75A2.5,2.5,0,0,1,77.5,95v15A2.5,2.5,0,0,1,75,112.5Zm-17.5-5h15v-10h-15Z"/><path class="cls-1" d="M110,142.5H90a2.5,2.5,0,0,1-2.5-2.5V125a2.5,2.5,0,0,1,2.5-2.5h20a2.5,2.5,0,0,1,2.5,2.5v15A2.5,2.5,0,0,1,110,142.5Zm-17.5-5h15v-10h-15Z"/><path class="cls-1" d="M145,142.5H125a2.5,2.5,0,0,1-2.5-2.5V125a2.5,2.5,0,0,1,2.5-2.5h20a2.5,2.5,0,0,1,2.5,2.5v15A2.5,2.5,0,0,1,145,142.5Zm-17.5-5h15v-10h-15Z"/><path class="cls-1" d="M75,142.5H55a2.5,2.5,0,0,1-2.5-2.5V125a2.5,2.5,0,0,1,2.5-2.5H75a2.5,2.5,0,0,1,2.5,2.5v15A2.5,2.5,0,0,1,75,142.5Zm-17.5-5h15v-10h-15Z"/><rect class="cls-1" x="97.5" y="75" width="5" height="20"/><rect class="cls-1" x="110" y="100" width="15" height="5"/><path class="cls-1" d="M137.5,95h-5V87.5h-65V95h-5V85A2.5,2.5,0,0,1,65,82.5h70a2.5,2.5,0,0,1,2.5,2.5Z"/><rect class="cls-1" x="97.5" y="110" width="5" height="15"/><rect class="cls-1" x="132.5" y="110" width="5" height="15"/><rect class="cls-1" x="75" y="130" width="15" height="5"/></svg>